<mxfile host="app.diagrams.net" modified="2020-11-05T09:08:46.598Z" agent="5.0 (Macintosh; Intel Mac OS X 10_15_7) AppleWebKit/537.36 (KHTML, like Gecko) Chrome/86.0.4240.111 Safari/537.36" etag="7U9X1toOfAwzDPk5fq66" version="13.8.5" type="github">
  <diagram id="hKRwNOdMQ6xR0kOxZ3xy" name="Page-1">
    <mxGraphModel dx="759" dy="786" grid="1" gridSize="10" guides="1" tooltips="1" connect="1" arrows="1" fold="1" page="1" pageScale="1" pageWidth="827" pageHeight="1169" math="0" shadow="0">
      <root>
        <mxCell id="0" />
        <mxCell id="1" parent="0" />
        <mxCell id="Nhymwte0ASbovPosRawi-1" value="PeerConnectionClient" style="shape=umlLifeline;perimeter=lifelinePerimeter;whiteSpace=wrap;html=1;container=1;collapsible=0;recursiveResize=0;outlineConnect=0;" vertex="1" parent="1">
          <mxGeometry x="40" y="90" width="130" height="300" as="geometry" />
        </mxCell>
        <mxCell id="Nhymwte0ASbovPosRawi-13" value="" style="html=1;points=[];perimeter=orthogonalPerimeter;" vertex="1" parent="Nhymwte0ASbovPosRawi-1">
          <mxGeometry x="60" y="80" width="10" height="80" as="geometry" />
        </mxCell>
        <mxCell id="Nhymwte0ASbovPosRawi-14" value="CreateVideoTrack" style="html=1;verticalAlign=bottom;startArrow=oval;endArrow=block;startSize=8;" edge="1" target="Nhymwte0ASbovPosRawi-13" parent="Nhymwte0ASbovPosRawi-1">
          <mxGeometry relative="1" as="geometry">
            <mxPoint y="80" as="sourcePoint" />
          </mxGeometry>
        </mxCell>
        <mxCell id="Nhymwte0ASbovPosRawi-2" value="PeerConnectionFactory" style="shape=umlLifeline;perimeter=lifelinePerimeter;whiteSpace=wrap;html=1;container=1;collapsible=0;recursiveResize=0;outlineConnect=0;" vertex="1" parent="1">
          <mxGeometry x="210" y="90" width="130" height="550" as="geometry" />
        </mxCell>
        <mxCell id="Nhymwte0ASbovPosRawi-15" value="" style="html=1;points=[];perimeter=orthogonalPerimeter;" vertex="1" parent="Nhymwte0ASbovPosRawi-2">
          <mxGeometry x="60" y="90" width="10" height="460" as="geometry" />
        </mxCell>
        <mxCell id="Nhymwte0ASbovPosRawi-3" value="SurfaceTextureHelper" style="shape=umlLifeline;perimeter=lifelinePerimeter;whiteSpace=wrap;html=1;container=1;collapsible=0;recursiveResize=0;outlineConnect=0;" vertex="1" parent="1">
          <mxGeometry x="370" y="90" width="130" height="590" as="geometry" />
        </mxCell>
        <mxCell id="Nhymwte0ASbovPosRawi-17" value="" style="html=1;points=[];perimeter=orthogonalPerimeter;" vertex="1" parent="Nhymwte0ASbovPosRawi-3">
          <mxGeometry x="60" y="90" width="10" height="100" as="geometry" />
        </mxCell>
        <mxCell id="Nhymwte0ASbovPosRawi-19" value="" style="html=1;points=[];perimeter=orthogonalPerimeter;" vertex="1" parent="Nhymwte0ASbovPosRawi-3">
          <mxGeometry x="70" y="130" width="10" height="40" as="geometry" />
        </mxCell>
        <mxCell id="Nhymwte0ASbovPosRawi-20" value="new" style="edgeStyle=orthogonalEdgeStyle;html=1;align=left;spacingLeft=2;endArrow=block;rounded=0;entryX=1;entryY=0;exitX=1;exitY=0.25;exitDx=0;exitDy=0;exitPerimeter=0;" edge="1" target="Nhymwte0ASbovPosRawi-19" parent="Nhymwte0ASbovPosRawi-3" source="Nhymwte0ASbovPosRawi-17">
          <mxGeometry relative="1" as="geometry">
            <mxPoint x="75" y="120" as="sourcePoint" />
            <Array as="points">
              <mxPoint x="70" y="110" />
              <mxPoint x="100" y="110" />
              <mxPoint x="100" y="130" />
            </Array>
          </mxGeometry>
        </mxCell>
        <mxCell id="Nhymwte0ASbovPosRawi-4" value="SurfaceTexture" style="shape=umlLifeline;perimeter=lifelinePerimeter;whiteSpace=wrap;html=1;container=1;collapsible=0;recursiveResize=0;outlineConnect=0;" vertex="1" parent="1">
          <mxGeometry x="560" y="90" width="130" height="300" as="geometry" />
        </mxCell>
        <mxCell id="Nhymwte0ASbovPosRawi-30" value="" style="html=1;points=[];perimeter=orthogonalPerimeter;" vertex="1" parent="Nhymwte0ASbovPosRawi-4">
          <mxGeometry x="60" y="140" width="10" height="50" as="geometry" />
        </mxCell>
        <mxCell id="Nhymwte0ASbovPosRawi-5" value="VideoCapture" style="shape=umlLifeline;perimeter=lifelinePerimeter;whiteSpace=wrap;html=1;container=1;collapsible=0;recursiveResize=0;outlineConnect=0;" vertex="1" parent="1">
          <mxGeometry x="730" y="90" width="130" height="590" as="geometry" />
        </mxCell>
        <mxCell id="Nhymwte0ASbovPosRawi-38" value="" style="html=1;points=[];perimeter=orthogonalPerimeter;" vertex="1" parent="Nhymwte0ASbovPosRawi-5">
          <mxGeometry x="60" y="340" width="10" height="80" as="geometry" />
        </mxCell>
        <mxCell id="Nhymwte0ASbovPosRawi-6" value="VideoSource" style="shape=umlLifeline;perimeter=lifelinePerimeter;whiteSpace=wrap;html=1;container=1;collapsible=0;recursiveResize=0;outlineConnect=0;" vertex="1" parent="1">
          <mxGeometry x="890" y="90" width="130" height="340" as="geometry" />
        </mxCell>
        <mxCell id="Nhymwte0ASbovPosRawi-34" value="" style="html=1;points=[];perimeter=orthogonalPerimeter;" vertex="1" parent="Nhymwte0ASbovPosRawi-6">
          <mxGeometry x="60" y="260" width="10" height="40" as="geometry" />
        </mxCell>
        <mxCell id="Nhymwte0ASbovPosRawi-7" value="VIdeoTrack" style="shape=umlLifeline;perimeter=lifelinePerimeter;whiteSpace=wrap;html=1;container=1;collapsible=0;recursiveResize=0;outlineConnect=0;" vertex="1" parent="1">
          <mxGeometry x="1070" y="90" width="130" height="300" as="geometry" />
        </mxCell>
        <mxCell id="Nhymwte0ASbovPosRawi-8" value="Video.cc" style="shape=umlLifeline;perimeter=lifelinePerimeter;whiteSpace=wrap;html=1;container=1;collapsible=0;recursiveResize=0;outlineConnect=0;fillColor=#e1d5e7;strokeColor=#9673a6;" vertex="1" parent="1">
          <mxGeometry x="1250" y="90" width="130" height="300" as="geometry" />
        </mxCell>
        <mxCell id="Nhymwte0ASbovPosRawi-21" value="" style="html=1;points=[];perimeter=orthogonalPerimeter;fillColor=#e1d5e7;strokeColor=#9673a6;" vertex="1" parent="Nhymwte0ASbovPosRawi-8">
          <mxGeometry x="60" y="210" width="10" height="80" as="geometry" />
        </mxCell>
        <mxCell id="Nhymwte0ASbovPosRawi-9" value="PeerConnectionFactory" style="shape=umlLifeline;perimeter=lifelinePerimeter;whiteSpace=wrap;html=1;container=1;collapsible=0;recursiveResize=0;outlineConnect=0;fillColor=#e1d5e7;strokeColor=#9673a6;" vertex="1" parent="1">
          <mxGeometry x="1430" y="90" width="130" height="300" as="geometry" />
        </mxCell>
        <mxCell id="Nhymwte0ASbovPosRawi-10" value="VideoBroardcast" style="shape=umlLifeline;perimeter=lifelinePerimeter;whiteSpace=wrap;html=1;container=1;collapsible=0;recursiveResize=0;outlineConnect=0;fillColor=#e1d5e7;strokeColor=#9673a6;" vertex="1" parent="1">
          <mxGeometry x="1760" y="90" width="130" height="300" as="geometry" />
        </mxCell>
        <mxCell id="Nhymwte0ASbovPosRawi-11" value="VideoTrack" style="shape=umlLifeline;perimeter=lifelinePerimeter;whiteSpace=wrap;html=1;container=1;collapsible=0;recursiveResize=0;outlineConnect=0;fillColor=#e1d5e7;strokeColor=#9673a6;" vertex="1" parent="1">
          <mxGeometry x="1930" y="90" width="130" height="300" as="geometry" />
        </mxCell>
        <mxCell id="Nhymwte0ASbovPosRawi-12" value="VideoSinkWrapper" style="shape=umlLifeline;perimeter=lifelinePerimeter;whiteSpace=wrap;html=1;container=1;collapsible=0;recursiveResize=0;outlineConnect=0;fillColor=#e1d5e7;strokeColor=#9673a6;" vertex="1" parent="1">
          <mxGeometry x="2120" y="90" width="130" height="300" as="geometry" />
        </mxCell>
        <mxCell id="Nhymwte0ASbovPosRawi-16" value="createVideoSource" style="html=1;verticalAlign=bottom;startArrow=oval;endArrow=block;startSize=8;exitX=1.1;exitY=0.163;exitDx=0;exitDy=0;exitPerimeter=0;" edge="1" target="Nhymwte0ASbovPosRawi-15" parent="1" source="Nhymwte0ASbovPosRawi-13">
          <mxGeometry relative="1" as="geometry">
            <mxPoint x="210" y="180" as="sourcePoint" />
          </mxGeometry>
        </mxCell>
        <mxCell id="Nhymwte0ASbovPosRawi-18" value="create" style="html=1;verticalAlign=bottom;startArrow=oval;endArrow=block;startSize=8;" edge="1" target="Nhymwte0ASbovPosRawi-17" parent="1">
          <mxGeometry relative="1" as="geometry">
            <mxPoint x="280" y="190" as="sourcePoint" />
            <Array as="points">
              <mxPoint x="330" y="190" />
            </Array>
          </mxGeometry>
        </mxCell>
        <mxCell id="Nhymwte0ASbovPosRawi-23" value="AndroidVideoTrackSource" style="shape=umlLifeline;perimeter=lifelinePerimeter;whiteSpace=wrap;html=1;container=1;collapsible=0;recursiveResize=0;outlineConnect=0;fillColor=#e1d5e7;strokeColor=#9673a6;" vertex="1" parent="1">
          <mxGeometry x="1600" y="90" width="140" height="300" as="geometry" />
        </mxCell>
        <mxCell id="Nhymwte0ASbovPosRawi-24" value="" style="html=1;points=[];perimeter=orthogonalPerimeter;fillColor=#e1d5e7;strokeColor=#9673a6;" vertex="1" parent="Nhymwte0ASbovPosRawi-23">
          <mxGeometry x="65" y="240" width="10" height="80" as="geometry" />
        </mxCell>
        <mxCell id="Nhymwte0ASbovPosRawi-25" value="new" style="html=1;verticalAlign=bottom;startArrow=oval;endArrow=block;startSize=8;exitX=1.4;exitY=0.638;exitDx=0;exitDy=0;exitPerimeter=0;" edge="1" target="Nhymwte0ASbovPosRawi-24" parent="1" source="Nhymwte0ASbovPosRawi-21">
          <mxGeometry relative="1" as="geometry">
            <mxPoint x="1330" y="272" as="sourcePoint" />
          </mxGeometry>
        </mxCell>
        <mxCell id="Nhymwte0ASbovPosRawi-31" value="new" style="html=1;verticalAlign=bottom;startArrow=oval;endArrow=block;startSize=8;exitX=1.3;exitY=0.25;exitDx=0;exitDy=0;exitPerimeter=0;" edge="1" target="Nhymwte0ASbovPosRawi-30" parent="1" source="Nhymwte0ASbovPosRawi-19">
          <mxGeometry relative="1" as="geometry">
            <mxPoint x="560" y="230" as="sourcePoint" />
          </mxGeometry>
        </mxCell>
        <mxCell id="Nhymwte0ASbovPosRawi-32" value="" style="html=1;points=[];perimeter=orthogonalPerimeter;" vertex="1" parent="1">
          <mxGeometry x="280" y="300" width="10" height="40" as="geometry" />
        </mxCell>
        <mxCell id="Nhymwte0ASbovPosRawi-33" value="nativeCreateVideoSource" style="edgeStyle=orthogonalEdgeStyle;html=1;align=left;spacingLeft=2;endArrow=block;rounded=0;entryX=1;entryY=0;exitX=1;exitY=0.226;exitDx=0;exitDy=0;exitPerimeter=0;" edge="1" target="Nhymwte0ASbovPosRawi-32" parent="1" source="Nhymwte0ASbovPosRawi-15">
          <mxGeometry x="-0.2771" y="-14" relative="1" as="geometry">
            <mxPoint x="300" y="240" as="sourcePoint" />
            <Array as="points">
              <mxPoint x="280" y="270" />
              <mxPoint x="310" y="270" />
              <mxPoint x="310" y="300" />
            </Array>
            <mxPoint as="offset" />
          </mxGeometry>
        </mxCell>
        <mxCell id="Nhymwte0ASbovPosRawi-37" value="createVideoSource" style="html=1;verticalAlign=bottom;startArrow=oval;startFill=1;endArrow=block;startSize=8;" edge="1" parent="1" target="Nhymwte0ASbovPosRawi-8">
          <mxGeometry width="60" relative="1" as="geometry">
            <mxPoint x="290" y="330" as="sourcePoint" />
            <mxPoint x="350" y="330" as="targetPoint" />
          </mxGeometry>
        </mxCell>
        <mxCell id="Nhymwte0ASbovPosRawi-35" value="new" style="html=1;verticalAlign=bottom;startArrow=oval;endArrow=block;startSize=8;" edge="1" target="Nhymwte0ASbovPosRawi-34" parent="1">
          <mxGeometry relative="1" as="geometry">
            <mxPoint x="280" y="360" as="sourcePoint" />
          </mxGeometry>
        </mxCell>
        <mxCell id="Nhymwte0ASbovPosRawi-39" value="initialize" style="html=1;verticalAlign=bottom;startArrow=oval;endArrow=block;startSize=8;" edge="1" target="Nhymwte0ASbovPosRawi-38" parent="1">
          <mxGeometry relative="1" as="geometry">
            <mxPoint x="440" y="460" as="sourcePoint" />
            <Array as="points" />
          </mxGeometry>
        </mxCell>
        <mxCell id="Nhymwte0ASbovPosRawi-40" value="" style="html=1;points=[];perimeter=orthogonalPerimeter;" vertex="1" parent="1">
          <mxGeometry x="790" y="520" width="10" height="80" as="geometry" />
        </mxCell>
        <mxCell id="Nhymwte0ASbovPosRawi-41" value="startCapture" style="html=1;verticalAlign=bottom;startArrow=oval;endArrow=block;startSize=8;" edge="1" target="Nhymwte0ASbovPosRawi-40" parent="1">
          <mxGeometry relative="1" as="geometry">
            <mxPoint x="280" y="520" as="sourcePoint" />
          </mxGeometry>
        </mxCell>
      </root>
    </mxGraphModel>
  </diagram>
</mxfile>
